<svg height="409mm" viewBox="31.514 -409.605 328.568 409.687" width="1231.155" xmlns="http://www.w3.org/2000/svg"><g fill="none" stroke="#a00000" stroke-width=".189245"><path d="m174.82-408.36c-5.778 2.974-11.97 11.883-20.865 30.025l-5 10.197-2.211.442c-1.216.243-5.637 1.782-9.825 3.42-4.188 1.637-7.715 2.862-7.838 2.723-.122-.14 1.361-5.78 3.297-12.534 1.936-6.753 3.41-12.604 3.277-13.001-.316-.942-6.032 8.84-12.396 21.214l-5.056 9.83-7.35 4.43c-19.83 11.955-38.583 29.752-51.29 48.675-13.354 19.887-21.361 40.024-25.993 65.37-2.056 11.25-1.887 41.585.297 53.45 7.701 41.836 29.622 77.861 62.42 102.583 3.839 2.892 7.477 5.538 8.085 5.879s2.128 3.542 3.374 7.114c2.652 7.599 8.229 19.59 11.986 25.777 3.11 5.118 10.857 15.029 11.748 15.029.341 0-.315-3.332-1.457-7.404-2.384-8.493-7.847-29.21-7.847-29.755 0-.2 2.356.701 5.236 2.005 2.88 1.303 7.256 3.117 9.723 4.031l4.486 1.662 1.137 4.076c5.06 18.136 11.365 33.303 17.302 41.622 3.049 4.272 10.38 11.582 10.997 10.965.157-.157-1.208-5.566-3.033-12.021-4.189-14.815-10.482-39.231-10.188-39.526.123-.122 4.257.508 9.188 1.4 7.859 1.424 11.324 1.62 28.105 1.596 16.407-.023 20.327-.248 27.435-1.571 4.562-.85 8.444-1.395 8.627-1.211 1.227 1.227-7.97 29.827-12.384 38.515-1.901 3.74-3.366 6.89-3.256 7 .558.559 6.254-2.736 8.408-4.864 5.56-5.494 12.961-19.334 19.854-37.125l3.365-8.686 3.771-1.32c2.074-.726 5.985-2.282 8.69-3.458 2.707-1.176 5.202-2.036 5.545-1.912.886.32-7.923 26.392-11.547 34.175-5.57 11.96-5.551 11.983 1.757 2.207 8.326-11.136 19.094-29.899 23.606-41.125 1.522-3.788 2.26-4.621 6.822-7.7 42.13-28.429 68.658-74.743 71.75-125.267 2.51-41.008-10.454-81.376-36.445-113.485-11.676-14.424-29.023-29.125-45.118-38.238l-8.483-4.803-2.009-3.732c-3.316-6.16-7.193-11.468-11.168-15.29-3.115-2.994-3.663-3.303-3.203-1.806 3.104 10.109 4.345 15.206 3.658 15.023-.443-.118-4.244-1.345-8.448-2.725l-7.642-2.51-4.865-9.513c-8.416-16.46-15.367-25.769-20.605-27.595-2.868-1-3.311-2.939 3.848 16.815 3.017 8.325 5.486 15.505 5.486 15.954 0 .595-1.723.546-6.32-.179-9.103-1.435-33.956-1.392-43.334.074-4.07.637-7.69 1.157-8.044 1.157-1.125 0 8.095-27.336 11.413-33.838.881-1.727 1.499-3.24 1.372-3.363s-1.407.382-2.845 1.122z"/><path d="m221.456-352.076c3.952.854 7.656 1.816 8.231 2.138 1.02.571 3.394 7.522 8.488 24.855 4.726 16.082 6.877 25.927 7.284 33.34l.397 7.223-2.533 4.83c-3.578 6.823-8.183 12.611-18.188 22.862l-8.698 8.912-.518-4.217c-1.234-10.042-4.533-17.974-9.57-23.01-2.577-2.578-7.975-6.126-9.319-6.126-.178 0 .866 2.317 2.319 5.15l2.642 5.15v6.587c0 7.308-1.335 11.05-4.89 13.704-2.598 1.94-5.82.957-8.759-2.674l-2.242-2.77.013-5.892c.01-5.091.365-6.752 2.606-12.213l2.594-6.32h-1.365c-2.361 0-6.104 1.926-9.225 4.745-5.269 4.76-8.27 11.193-9.71 20.819l-.853 5.7-5.393-4.722c-7.929-6.943-26.661-28.204-26.693-30.295-.022-1.494 5.713-22.178 10.877-39.225 7.893-26.056 7.486-24.8 8.28-25.588.826-.822 12.032-3.391 18.951-4.345 2.674-.369 12.338-.558 21.475-.42 13.616.205 17.91.53 23.799 1.802zm39.207 13.856c2.659 1.632 3.08 2.823 8.443 23.916 4.766 18.745 7.77 33.947 8.17 41.341l.351 6.501-2.6 3.382c-4.28 5.564-14.248 13.499-23.918 19.04-3.156 1.808-2.443.94 5.65-6.872 10.896-10.515 15.692-16.796 16.183-21.19.185-1.665-.192-5.064-.839-7.553-2.445-9.409-12.05-37.153-19.492-56.302-1.422-3.66-2.586-6.811-2.586-7.003 0-.48 7.784 2.987 10.638 4.74zm-123.319-3.396c0 .18-3.275 8.55-7.278 18.6-15.116 37.948-18.725 48.043-18.725 52.37 0 2.184 3.643 6.117 12.155 13.123 3.842 3.163 7.799 6.443 8.792 7.29l1.806 1.54-2.528-1.219c-4.2-2.023-13.163-8.205-16.515-11.389-1.734-1.647-3.603-4.04-4.154-5.318-2.292-5.322-.626-20.529 4.848-44.265 3.785-16.416 5.49-22.494 6.607-23.555 1.145-1.089 13.371-7.505 14.3-7.505.381 0 .692.148.692.328z"/><path d="m295.518-312.327c22.901 22.863 37.335 53.05 41.254 86.281 1.057 8.963.457 32.48-1.033 40.483-2.684 14.412-6.285 25.672-12.102 37.832-5.468 11.432-8.193 15.947-15.529 25.732-5.616 7.49-18.36 21.022-18.352 19.486.002-.388 1.97-8.67 4.373-18.403 10.189-41.258 15.126-63.647 15.126-68.59 0-2.312-.519-3.488-2.507-5.69-3.286-3.636-7.81-5.072-18.802-5.965-10.54-.856-43.895-6.387-44.963-7.455-.119-.119.198-.542.704-.94 2.408-1.89 25.98-15.525 35.953-20.794 14.815-7.828 18.293-10.033 21.217-13.449 4.205-4.913 4.079-6.674-2.107-29.31-2.683-9.82-13.555-43.72-15.936-49.688-.854-2.142 4.449 2.228 12.704 10.47zm-197.807 4.741c-7.303 19.939-15.993 48.363-15.978 52.263.018 4.638 5.05 11.728 10.548 14.86l2.249 1.282.462 6.013c.494 6.435 1.427 9.347 3.212 10.032 2.261.867 3.374-1.566 3.64-7.958.14-3.363.556-6.114.924-6.114 2.734 0 33.922 18.724 43.236 25.957l1.797 1.396-1.951.741c-2.024.77-24.061 5.304-47.872 9.85-21.566 4.118-23.933 5.799-23.298 16.536.295 4.988 1.133 7.977 5.784 20.64 5.464 14.878 11.894 35.317 15.338 48.756 1.017 3.973 2.04 7.874 2.27 8.668.567 1.953-8.082-6.522-13.636-13.363-20.978-25.836-32.325-58.035-32.325-91.733 0-33.474 10.427-63.886 30.942-90.245 4.668-6 18.034-19.929 18.59-19.374.156.156-1.614 5.463-3.932 11.793z"/><path d="m148.179-187.059c0 .17-3.982 2.657-8.848 5.525-11.374 6.703-21.352 13.506-22.238 15.162-1.111 2.076-.82 6.363 1.055 15.561 2.349 11.516 8.158 35.979 13.317 56.079 2.32 9.038 4.093 16.433 3.941 16.433-.886 0-14.14-7.287-18.166-9.987-1.41-.946-5.124-16.909-8.77-37.686-2.64-15.054-4.986-34.444-5.24-43.326l-.196-6.85 3.973-1.299c4.554-1.489 20.091-5.406 30.698-7.738 3.973-.874 7.549-1.697 7.946-1.829 1.101-.367 2.528-.392 2.528-.045zm102.804 6.275c11.48 2.516 22.444 5.705 26.49 7.704l3.973 1.963.48 3.25c1.204 8.134-2.607 41.189-7.722 66.986-2.045 10.312-2.84 13.055-4.049 13.975-2.543 1.935-15.797 8.75-15.788 8.118.004-.327.507-2.22 1.117-4.206 4.392-14.302 15.773-62.348 16.62-70.17l.482-4.438-3.094-3.356c-3.232-3.508-10.862-9.326-22.176-16.912-3.674-2.464-6.681-4.669-6.681-4.9 0-.232.894-.194 1.986.083 1.093.278 4.856 1.134 8.362 1.903z"/><path d="m170.6-169.491c.451 1.49 1.045 10.51 1.32 20.044.514 17.833.85 19.78 3.676 21.292 2.104 1.126 3.435.896 5.138-.887l1.552-1.625-.474-11.823-.474-11.823 1.138 1.138c2.498 2.498 4.329-.65 3.603-6.191l-.405-3.083 1.283 1.806c5.737 8.082 9.893 8.445 14.427 1.263 2.104-3.334 2.636-2.977 3.5 2.349 1.068 6.572 4.041 9.733 7.205 7.66 1.95-1.278 2.878-4.564 2.244-7.945-.355-1.892-.095-2.661 1.363-4.032.992-.931 2.007-2.782 2.257-4.114.25-1.33.677-2.558.95-2.726.508-.315 13.67 9.461 22.987 17.075 3.828 3.128 5.246 4.749 5.246 5.996 0 2.933-2.828 23.857-5.468 40.453-3.571 22.456-5.712 32.907-6.89 33.64-1.08.673-10.828 2.945-19.063 4.445-7.775 1.415-35.86 1.17-44.152-.385-9.504-1.783-17.814-4.003-18.375-4.91-.7-1.135-4.738-20.695-7.189-34.827-2.611-15.062-4.266-29.13-4.45-37.82l-.14-6.63 3.866-3.482c8.88-7.998 21.75-17.567 23.627-17.567.483 0 1.247 1.219 1.698 2.709z"/></g></svg>